# xmcd
#
# Track frame offsets: 
#        150
#        11663
#        30623
#        48411
#        62663
#        83814
#        100827
#        125403
#        144478
#        161309
#
# Disc length: 2779 seconds
#
# Revision: 0
# Processed by: cddbd v1.5.2PL0 Copyright (c) Steve Scherf et al.
# Submitted via: ExactAudioCopy v0.95b4
#
DISCID=780ad90a
DTITLE=Daniel F - Rock en el Parque VII
DYEAR=2005
DGENRE=Acoustic
TTITLE0=El Hombre Que Conversaba con la Luna
TTITLE1=Distancias
TTITLE2=Canto Por Ti
TTITLE3=El Hombre Ke No Podia Dejar de Masturbarse
TTITLE4=Sed de Sed
TTITLE5=El Oso
TTITLE6=El Asesino de la Ilusion
TTITLE7=De Carton Piedra
TTITLE8=Al Colegio No Voy Mas
TTITLE9=Videos
EXTD=
EXTT0=
EXTT1=
EXTT2=
EXTT3=
EXTT4=
EXTT5=
EXTT6=
EXTT7=
EXTT8=
EXTT9=
PLAYORDER=
